<?xml version="1.0" standalone="no"?>
<!DOCTYPE svg PUBLIC "-//W3C//DTD SVG 20010904//EN"
 "http://www.w3.org/TR/2001/REC-SVG-20010904/DTD/svg10.dtd">
<svg version="1.0" xmlns="http://www.w3.org/2000/svg"
 width="887.000000pt" height="887.000000pt" viewBox="0 0 887.000000 887.000000"
 preserveAspectRatio="xMidYMid meet">
<metadata>
Created by potrace 1.14, written by Peter Selinger 2001-2017
</metadata>
<g transform="translate(0.000000,887.000000) scale(0.100000,-0.100000)"
fill="#000000" stroke="none">
<path d="M4040 8765 c11 -13 3 -14 -63 -9 -65 6 -80 4 -109 -13 -24 -15 -59
-22 -126 -27 -101 -6 -120 -12 -103 -29 16 -16 14 -25 -8 -32 -11 -3 -24 -20
-30 -37 -10 -29 -13 -30 -51 -24 -35 5 -41 3 -56 -19 -13 -20 -14 -28 -4 -40
14 -16 13 -17 -45 -91 l-30 -38 0 -221 0 -222 37 -41 c20 -23 40 -56 43 -76
10 -53 34 -67 122 -76 63 -7 99 -18 186 -58 121 -57 255 -142 322 -203 48 -45
91 -106 81 -116 -12 -12 -218 99 -302 163 -62 46 -158 97 -262 139 l-94 37
-24 -23 c-14 -13 -39 -48 -56 -77 l-30 -54 -34 33 c-33 32 -44 59 -24 59 6 0
8 11 4 25 -4 17 -1 32 9 43 32 37 49 84 42 119 -7 41 -45 83 -75 83 -26 0 -26
16 0 30 11 6 27 24 35 40 16 30 16 30 -37 82 -72 72 -88 96 -81 129 4 20 -4
41 -34 86 -22 32 -57 88 -77 126 -33 58 -37 73 -31 107 5 32 4 40 -9 40 -8 0
-20 10 -27 23 -35 68 -105 107 -136 76 -9 -9 -24 -1 -61 30 -27 23 -66 46 -86
52 -42 12 -63 4 -46 -16 9 -11 4 -11 -27 -4 -64 15 -106 10 -148 -16 -29 -18
-55 -25 -95 -25 -55 0 -126 -13 -138 -24 -3 -4 -1 -11 6 -18 8 -8 5 -16 -12
-29 -13 -10 -26 -29 -30 -42 -5 -20 -10 -22 -44 -19 -32 3 -43 0 -56 -19 -10
-15 -12 -27 -6 -33 17 -17 12 -30 -27 -81 l-38 -48 -3 -160 c-3 -125 -1 -162
10 -168 7 -5 8 -9 3 -9 -7 0 -9 -22 -5 -60 5 -52 10 -64 41 -92 24 -22 39 -48
47 -79 14 -54 32 -64 132 -73 164 -13 518 -215 576 -328 14 -26 13 -28 -5 -28
-27 0 -169 75 -276 145 -91 60 -187 107 -302 148 l-72 26 -31 -36 c-44 -49
-70 -114 -64 -155 5 -30 3 -35 -29 -50 -22 -11 -49 -38 -70 -70 -19 -29 -64
-81 -101 -116 -69 -65 -95 -109 -139 -227 -50 -137 -61 -213 -52 -379 5 -83 7
-174 6 -202 -3 -88 17 -185 50 -236 46 -71 52 -105 38 -216 -18 -149 -16 -171
30 -270 37 -81 41 -96 41 -171 0 -44 7 -125 16 -179 21 -127 14 -272 -25 -507
-41 -248 -44 -288 -32 -468 7 -114 7 -192 -2 -285 -6 -70 -12 -163 -12 -207
l0 -80 42 -3 c23 -2 124 6 223 17 199 23 244 25 236 12 -3 -5 -40 -12 -81 -16
-82 -7 -91 -17 -50 -55 34 -32 39 -73 21 -153 -23 -100 -21 -124 14 -155 30
-26 30 -27 30 -133 0 -86 4 -117 20 -155 11 -26 19 -48 18 -49 -8 -8 -451
-145 -466 -145 -40 0 -80 -21 -86 -46 -4 -14 -14 -24 -24 -24 -19 0 -62 -25
-104 -62 -19 -16 -25 -27 -19 -37 12 -18 40 -8 93 34 42 34 43 34 50 12 10
-34 9 -57 -2 -57 -18 0 -97 -40 -119 -61 -27 -26 -27 -75 0 -140 20 -46 23
-49 59 -49 37 0 39 -2 45 -39 3 -22 8 -97 9 -168 3 -120 6 -134 41 -228 68
-182 209 -433 252 -449 24 -10 39 10 23 29 -12 14 -11 16 11 10 17 -4 30 -1
38 9 21 25 25 153 8 221 -26 98 -23 121 23 225 24 52 54 112 68 132 l25 38 46
-39 c25 -21 55 -48 65 -60 11 -11 24 -21 31 -21 16 0 62 50 73 80 7 18 11 21
15 10 10 -28 27 -245 32 -400 7 -245 49 -445 176 -848 42 -132 78 -270 90
-340 28 -169 43 -208 90 -238 25 -15 39 -32 39 -45 0 -24 42 -98 69 -123 17
-15 28 -16 105 -6 112 15 141 6 203 -67 57 -66 85 -80 184 -88 182 -17 597 49
631 99 12 18 -14 36 -53 36 -33 0 -39 3 -39 20 0 33 -76 100 -202 178 -126 80
-208 148 -208 176 0 15 8 16 71 10 85 -8 88 7 7 26 -29 7 -60 16 -69 21 -20
10 -55 213 -70 414 -6 83 -17 177 -24 210 -25 113 -48 286 -39 294 5 4 40 5
79 2 l69 -6 17 -95 c22 -124 68 -305 129 -510 28 -96 57 -222 69 -301 24 -164
40 -206 86 -237 23 -15 35 -30 35 -45 0 -13 15 -47 33 -77 l33 -55 101 3 c123
4 153 -7 206 -78 43 -57 78 -78 144 -86 27 -3 75 -17 109 -30 33 -13 113 -30
178 -39 192 -25 498 -17 528 13 17 17 -4 40 -43 46 -31 5 -39 10 -39 27 0 38
-38 85 -176 215 -123 116 -186 195 -166 208 7 4 70 -7 114 -20 10 -3 18 -1 18
4 0 6 -28 21 -62 34 l-63 24 -3 56 c-3 51 -5 55 -24 50 -15 -3 -19 -1 -16 9 3
8 11 14 19 14 20 0 38 211 47 540 l7 260 25 -1 c14 -1 50 -6 80 -12 30 -6 90
-16 133 -23 42 -6 84 -17 92 -23 20 -14 76 -237 120 -478 34 -185 44 -260 65
-482 5 -59 16 -120 23 -135 12 -24 16 -26 82 -26 l70 0 -3 190 c-1 105 -5 247
-8 316 l-6 126 42 6 c23 3 45 8 48 12 4 4 6 92 4 196 l-2 189 29 0 c16 0 42
-3 58 -6 l30 -6 5 -266 c3 -159 10 -278 16 -294 11 -26 16 -28 66 -28 l54 0
10 43 c6 23 13 69 17 102 13 126 11 123 58 132 38 8 42 12 45 41 3 26 11 36
43 52 34 18 46 35 86 115 l48 95 51 0 c60 0 52 13 88 -160 42 -200 85 -509 95
-686 6 -93 14 -182 20 -196 8 -22 18 -27 63 -32 57 -7 87 -1 89 18 0 6 2 110
4 231 4 249 -7 458 -36 654 -11 74 -17 136 -14 139 2 3 11 0 18 -7 10 -7 16
-46 20 -118 4 -60 11 -151 16 -203 20 -202 24 -586 7 -750 -28 -269 -26 -278
70 -287 72 -7 70 -10 84 121 5 50 17 127 25 171 45 229 62 534 45 833 -6 118
-9 216 -7 219 7 6 84 -195 103 -269 9 -35 17 -64 18 -65 1 -2 50 8 114 22 16
4 22 13 23 33 l0 27 10 -25 c24 -59 80 -293 87 -361 l7 -74 49 -3 c73 -5 94 3
98 36 2 21 11 30 43 41 32 11 53 31 103 98 60 80 76 117 32 78 -11 -10 -20
-13 -20 -7 0 26 -21 8 -87 -73 -37 -47 -74 -85 -80 -85 -7 0 -15 10 -18 23
-45 191 -67 307 -75 397 -10 103 -9 113 10 150 20 39 16 52 -8 28 -8 -8 -12
-8 -12 -1 0 6 -9 78 -19 159 -22 165 -37 354 -47 574 -6 140 -5 147 20 214 24
63 27 83 26 195 -1 70 -1 133 -1 141 0 8 12 48 26 89 38 106 42 186 17 307
-50 234 -55 284 -56 504 -1 223 21 468 65 733 23 136 43 196 106 310 25 45 72
136 105 202 l59 120 -28 22 c-34 28 -125 59 -253 87 -87 20 -95 23 -98 46 -2
14 -12 49 -24 77 -18 46 -25 54 -57 62 -87 24 -130 31 -187 31 -34 0 -86 9
-119 20 -70 24 -76 25 -47 4 l23 -16 -21 -36 -22 -37 34 31 33 31 105 -9 c58
-4 130 -14 160 -21 53 -12 56 -15 82 -67 15 -30 27 -63 27 -74 1 -17 -4 -18
-45 -12 -26 3 -60 6 -76 6 -24 0 -29 4 -24 16 3 9 8 28 11 42 l5 27 -10 -25
c-6 -13 -16 -27 -22 -31 -22 -14 2 -37 52 -49 51 -12 52 -13 46 -44 l-6 -31
19 23 c25 29 30 28 74 -13 42 -39 43 -44 22 -85 -20 -40 -43 -38 -123 6 -57
32 -75 37 -145 40 -44 2 -82 6 -85 9 -15 14 18 22 63 15 50 -8 81 2 69 22 -4
5 -10 5 -18 -1 -13 -11 -30 -3 -39 19 -4 10 -6 8 -6 -7 -1 -18 -6 -22 -23 -19
-15 2 -22 9 -20 20 4 23 -6 20 -31 -10 -26 -29 -57 -24 -57 10 -1 19 -2 20
-14 4 -13 -17 -56 -15 -56 4 0 5 -16 18 -35 29 -39 23 -43 42 -19 79 14 23 13
22 -10 -3 -14 -15 -27 -27 -30 -27 -8 0 58 176 73 194 12 15 12 21 -1 49 -24
48 -136 177 -156 178 -9 1 -24 2 -32 3 -8 0 -30 29 -48 63 -18 35 -50 75 -73
94 -23 18 -61 63 -85 101 -28 43 -59 77 -86 94 -62 38 -95 72 -134 136 -27 44
-45 62 -79 77 -74 33 -92 79 -140 359 -37 223 -51 260 -139 362 -31 36 -65 83
-76 105 -18 35 -18 41 -5 62 22 33 19 40 -27 69 -24 15 -55 38 -70 51 l-26 25
24 36 c22 32 23 37 9 52 -8 9 -15 30 -15 47 0 23 -10 38 -51 71 -44 36 -59 42
-98 42 -59 0 -76 11 -67 43 5 22 13 26 65 32 56 6 63 5 97 -21 20 -16 45 -47
54 -70 19 -43 46 -66 119 -104 51 -26 56 -23 88 57 13 32 23 43 35 39 25 -6
50 27 43 56 -3 13 -26 58 -50 99 -34 56 -41 75 -30 77 8 2 15 14 15 27 0 13
16 41 35 62 43 47 50 68 35 122 -9 33 -18 45 -41 53 -32 11 -40 38 -10 38 18
0 61 43 61 60 0 4 -23 38 -51 76 -47 64 -50 72 -45 112 5 35 0 58 -25 115 -18
40 -42 101 -54 137 -20 59 -21 69 -9 93 13 24 12 29 -6 47 -11 11 -20 25 -20
30 0 6 -12 29 -27 51 -24 37 -30 40 -66 37 -36 -2 -44 2 -81 43 -45 51 -73 69
-107 69 -19 0 -20 -2 -8 -17 12 -15 12 -16 -5 -9 -103 38 -118 40 -169 22 -40
-14 -66 -16 -149 -10 -96 6 -100 6 -94 -13 4 -14 -2 -25 -24 -41 -16 -13 -30
-29 -30 -37 0 -18 -18 -19 -56 -5 -36 14 -67 -11 -58 -47 5 -19 -4 -34 -44
-77 -54 -57 -59 -72 -87 -259 -10 -64 -11 -93 -3 -98 6 -4 6 -8 1 -10 -6 -2
-13 -30 -16 -61 -6 -51 -5 -59 19 -87 15 -18 28 -50 33 -81 11 -69 30 -86 117
-105 58 -13 93 -30 176 -84 57 -37 139 -99 182 -137 115 -99 207 -243 147
-227 -23 6 -181 124 -224 167 -75 76 -204 169 -308 222 -64 32 -81 25 -143
-58 l-43 -58 -21 23 c-24 25 -29 47 -11 47 7 0 8 11 4 30 -4 18 -2 30 3 30 6
0 22 21 36 46 23 41 25 51 16 85 -12 44 -32 67 -66 75 -13 3 -24 8 -24 11 0 2
16 19 35 37 19 19 35 39 35 45 0 7 -30 43 -66 82 -60 64 -65 73 -60 103 5 26
-2 45 -40 106 -83 134 -105 186 -94 215 13 35 13 45 -3 45 -8 0 -28 22 -45 49
-46 71 -56 77 -98 62 -33 -12 -36 -11 -76 24 -43 40 -94 65 -129 65 -18 0 -19
-2 -9 -15z m-713 -712 c3 -7 -4 -9 -16 -6 -12 3 -18 9 -15 15 7 11 26 6 31 -9z
m-607 -183 c0 -5 -6 -10 -14 -10 -8 0 -18 5 -21 10 -3 6 3 10 14 10 12 0 21
-4 21 -10z m1662 -395 c54 -30 78 -73 52 -92 -14 -10 -22 -9 -46 9 -22 15 -46
21 -96 22 -65 1 -67 2 -70 28 -3 28 0 30 93 51 11 3 21 5 21 6 1 0 22 -10 46
-24z m-1238 -4 c33 -15 50 -30 65 -58 11 -22 32 -45 47 -52 l28 -13 -24 -19
c-32 -24 -40 -24 -40 0 0 13 -18 30 -56 51 -49 29 -61 32 -106 26 -57 -8 -77
3 -71 38 5 23 21 30 105 45 3 0 27 -8 52 -18z m327 -744 c-13 -13 -26 -3 -16
12 3 6 11 8 17 5 6 -4 6 -10 -1 -17z m-11 -178 c0 -5 -4 -9 -10 -9 -5 0 -10 7
-10 16 0 8 5 12 10 9 6 -3 10 -10 10 -16z m214 -274 c3 -9 0 -15 -9 -15 -9 0
-12 6 -9 15 4 8 7 15 9 15 2 0 5 -7 9 -15z m2450 -948 c31 -41 34 -67 6 -67
-11 0 -20 7 -20 15 0 21 -8 19 -32 -7 l-20 -23 6 25 c3 14 6 40 6 58 0 42 21
42 54 -1z m56 -52 c11 -13 10 -14 -4 -9 -9 3 -16 10 -16 15 0 13 6 11 20 -6z
m54 -34 c6 -10 -131 -27 -141 -18 -3 3 -2 10 2 16 8 13 132 15 139 2z m-964
-327 c0 -8 -5 -12 -10 -9 -6 4 -8 11 -5 16 9 14 15 11 15 -7z m-2846 -1351 c4
-9 1 -20 -6 -25 -20 -12 -28 -10 -28 10 0 33 23 43 34 15z m4026 -57 c0 -3 -4
-8 -10 -11 -5 -3 -10 -1 -10 4 0 6 5 11 10 11 6 0 10 -2 10 -4z m-3055 -58
c26 -20 26 -22 9 -29 -52 -21 -92 -2 -78 36 9 21 37 19 69 -7z m3198 -101 c19
-107 22 -177 6 -177 -6 0 -25 11 -42 24 -18 13 -50 32 -72 41 -49 21 -222 55
-276 55 -33 0 -41 4 -49 26 -6 14 -10 38 -10 54 0 26 4 29 50 39 28 6 121 11
205 11 97 0 155 4 155 10 0 6 4 10 8 10 5 0 16 -42 25 -93z m363 3 c82 -16
158 -32 170 -35 19 -4 22 -16 32 -132 18 -198 19 -327 2 -353 -8 -12 -16 -9
-47 21 -39 38 -82 65 -96 61 -4 -1 -14 4 -22 11 -7 8 -57 27 -110 43 -93 28
-96 30 -91 54 4 14 11 67 18 118 11 88 5 167 -19 227 -7 19 -10 20 163 -15z
m-4326 -80 c0 -5 -5 -10 -11 -10 -5 0 -7 5 -4 10 3 6 8 10 11 10 2 0 4 -4 4
-10z m-203 -202 c-3 -8 -6 -5 -6 6 -1 11 2 17 5 13 3 -3 4 -12 1 -19z m-197
-3 c0 -9 -9 -15 -22 -15 -22 1 -23 1 -4 15 25 19 26 19 26 0z m-335 -156 c4
-16 1 -30 -7 -36 -10 -9 -13 -2 -15 35 -2 47 10 48 22 1z m120 31 c3 -5 1 -10
-4 -10 -6 0 -11 5 -11 10 0 6 2 10 4 10 3 0 8 -4 11 -10z m515 -570 c0 -5 -5
-10 -11 -10 -5 0 -7 5 -4 10 3 6 8 10 11 10 2 0 4 -4 4 -10z m909 -127 c22
-95 81 -264 114 -328 32 -61 64 -81 60 -37 -3 20 0 21 17 12 11 -6 24 -9 29
-6 5 3 11 -8 15 -25 12 -60 13 -59 -79 -59 -79 0 -86 2 -95 23 -5 12 -35 118
-66 236 -55 205 -56 215 -39 227 11 8 21 14 25 14 3 0 11 -26 19 -57z m-1269
40 c0 -17 -52 -93 -61 -87 -20 12 20 94 46 94 8 0 15 -3 15 -7z m4860 -3 c0
-5 -2 -10 -4 -10 -3 0 -8 5 -11 10 -3 6 -1 10 4 10 6 0 11 -4 11 -10z m-2015
-55 c22 -8 57 -14 77 -15 43 0 34 19 101 -230 l33 -125 -135 -6 c-75 -3 -137
-5 -137 -5 -3 2 -34 342 -34 365 0 12 8 21 23 24 12 2 24 5 27 5 3 1 23 -5 45
-13z m825 -25 c0 -5 -5 -10 -11 -10 -5 0 -7 5 -4 10 3 6 8 10 11 10 2 0 4 -4
4 -10z m-418 -45 c13 -46 48 -216 47 -229 -1 -12 -71 188 -83 237 -6 24 -4 28
10 25 10 -2 21 -16 26 -33z m1632 -32 c3 -32 8 -94 11 -138 11 -147 36 -339
61 -463 13 -68 24 -145 24 -172 0 -26 9 -77 20 -112 42 -134 16 -114 -40 30
-67 173 -90 246 -116 378 -13 68 -40 178 -59 245 -50 172 -51 187 -23 229 25
38 60 60 95 60 18 0 22 -7 27 -57z m-1879 7 c3 -5 1 -10 -4 -10 -6 0 -11 5
-11 10 0 6 2 10 4 10 3 0 8 -4 11 -10z m1061 -24 c10 -10 74 -264 74 -291 0
-6 -48 -10 -125 -10 l-124 0 -5 40 c-18 151 -26 226 -26 253 l0 32 98 -6 c53
-4 102 -12 108 -18z m413 -304 c0 -2 6 0 11 3 6 3 10 -1 10 -10 0 -10 -5 -13
-11 -9 -9 5 -10 -6 -6 -42 4 -27 10 -91 13 -143 7 -86 6 -93 -11 -90 -14 3
-25 35 -52 154 -20 83 -54 213 -77 290 l-42 140 62 5 c35 3 69 11 76 18 11 11
14 -16 19 -150 3 -90 7 -164 8 -166z m-1031 270 c2 -7 -6 -12 -17 -12 -21 0
-27 11 -14 24 9 9 26 2 31 -12z m682 8 c0 -5 -5 -10 -11 -10 -5 0 -7 5 -4 10
3 6 8 10 11 10 2 0 4 -4 4 -10z m-2654 -56 c-3 -9 -6 -20 -6 -25 0 -6 -4 -7
-10 -4 -16 10 -12 45 6 45 11 0 14 -5 10 -16z m-206 -64 c0 -5 -2 -10 -4 -10
-3 0 -8 5 -11 10 -3 6 -1 10 4 10 6 0 11 -4 11 -10z m1490 -55 c0 -8 -4 -15
-10 -15 -5 0 -10 7 -10 15 0 8 5 15 10 15 6 0 10 -7 10 -15z m-2780 -32 c0
-20 -3 -24 -11 -16 -7 7 -9 19 -6 27 10 24 17 19 17 -11z m3559 -58 c0 -20 0
-20 -14 -1 -8 11 -15 34 -14 50 l1 31 13 -30 c8 -16 14 -39 14 -50z m309 52
c2 -10 -3 -17 -11 -17 -16 0 -30 24 -19 34 10 10 27 1 30 -17z m309 -173 c24
-7 38 -40 46 -111 l5 -43 -41 0 c-62 0 -175 18 -234 36 l-53 17 0 48 0 48 68
4 c130 6 187 7 209 1z m-553 -59 c6 -16 -3 -19 -29 -9 -13 5 -14 8 -3 15 19
12 25 11 32 -6z m-1954 -115 c0 -5 -4 -10 -10 -10 -5 0 -10 5 -10 10 0 6 5 10
10 10 6 0 10 -4 10 -10z m2460 -89 c0 -5 -6 -14 -14 -20 -11 -9 -15 -9 -19 1
-6 18 -8 15 -69 -90 -29 -50 -57 -93 -63 -94 -5 -1 -23 29 -38 67 -37 88 -30
127 23 136 55 10 180 10 180 0z m-2325 -51 c3 -5 1 -10 -4 -10 -6 0 -11 5 -11
10 0 6 2 10 4 10 3 0 8 -4 11 -10z m-1075 -20 c0 -5 -2 -10 -4 -10 -3 0 -8 5
-11 10 -3 6 -1 10 4 10 6 0 11 -4 11 -10z m2840 -40 c0 -5 -4 -10 -10 -10 -5
0 -10 5 -10 10 0 6 5 10 10 10 6 0 10 -4 10 -10z m-180 -54 c0 -11 -19 -15
-25 -6 -3 5 1 10 9 10 9 0 16 -2 16 -4z m1070 -56 c0 -5 -4 -10 -10 -10 -5 0
-10 5 -10 10 0 6 5 10 10 10 6 0 10 -4 10 -10z m270 -325 c0 -8 -4 -15 -9 -15
-13 0 -22 16 -14 24 11 11 23 6 23 -9z m-3250 -25 c0 -5 -4 -10 -10 -10 -5 0
-10 5 -10 10 0 6 5 10 10 10 6 0 10 -4 10 -10z m-5 -120 c-3 -5 -11 -10 -16
-10 -6 0 -7 5 -4 10 3 6 11 10 16 10 6 0 7 -4 4 -10z m1277 -82 c-6 -6 -16 -7
-22 -3 -9 6 -9 9 1 16 17 10 34 0 21 -13z m-1409 -86 c-3 -13 5 -25 22 -36 37
-24 26 -29 -25 -11 -67 24 -77 36 -43 51 40 18 52 17 46 -4z m662 -52 c3 -5
-1 -10 -9 -10 -9 0 -16 5 -16 10 0 6 4 10 9 10 6 0 13 -4 16 -10z m-1048 -6
c-3 -3 -12 -4 -19 -1 -8 3 -5 6 6 6 11 1 17 -2 13 -5z"/>
<path d="M3340 8196 c0 -9 5 -16 10 -16 6 0 10 4 10 9 0 6 -4 13 -10 16 -5 3
-10 -1 -10 -9z"/>
</g>
</svg>
